<?xml version="1.0" standalone="no"?>
<!DOCTYPE svg PUBLIC "-//W3C//DTD SVG 20010904//EN"
 "http://www.w3.org/TR/2001/REC-SVG-20010904/DTD/svg10.dtd">
<svg version="1.0" xmlns="http://www.w3.org/2000/svg"
 width="96.000000pt" height="96.000000pt" viewBox="0 0 96.000000 96.000000"
 preserveAspectRatio="xMidYMid meet">

<g transform="translate(0.000000,96.000000) scale(0.100000,-0.100000)"
fill="#000000" stroke="none">
<path d="M420 880 c0 -5 6 -7 13 -4 7 2 23 -9 35 -26 20 -27 28 -30 70 -28
l47 2 -47 3 c-39 3 -51 9 -68 34 -21 28 -50 40 -50 19z"/>
<path d="M402 828 c-10 -30 -10 -31 3 -14 13 17 21 46 12 46 -1 0 -8 -15 -15
-32z"/>
<path d="M555 784 c-9 -14 -15 -27 -13 -30 2 -2 12 10 22 26 21 37 15 40 -9 4z"/>
<path d="M344 790 c-22 -9 -41 -40 -24 -40 5 0 23 -26 39 -59 40 -78 70 -112
128 -143 l48 -26 0 76 c0 66 4 82 25 112 13 19 17 29 9 23 -9 -7 -18 -10 -21
-8 -3 3 -8 -8 -11 -24 -6 -28 -9 -30 -36 -25 -22 5 -37 1 -57 -15 -36 -28 -44
-27 -44 8 0 43 -9 60 -41 77 -36 18 -36 27 -1 41 15 6 23 11 17 11 -5 1 -19
-3 -31 -8z m46 -109 c-1 -25 -2 -25 -20 9 -25 45 -25 58 0 35 11 -10 20 -30
20 -44z m122 -16 c9 -4 12 -22 10 -65 l-4 -60 -39 22 c-22 12 -47 30 -55 39
-15 17 -14 20 12 43 29 25 50 31 76 21z"/>
<path d="M272 748 c-7 -7 -11 -26 -11 -42 l2 -31 4 30 c3 17 9 36 15 43 13 15
6 16 -10 0z"/>
<path d="M607 738 c12 -6 27 -22 32 -37 6 -17 10 -20 10 -8 1 20 -33 57 -51
56 -7 0 -3 -5 9 -11z"/>
<path d="M270 662 c0 -7 10 -36 21 -63 20 -44 20 -51 7 -67 -9 -9 -18 -28 -22
-42 l-6 -25 13 25 c26 53 27 53 60 23 l30 -28 -27 37 c-16 21 -39 64 -52 95
-13 32 -24 52 -24 45z"/>
<path d="M652 600 c0 -14 2 -19 5 -12 2 6 2 18 0 25 -3 6 -5 1 -5 -13z"/>
<path d="M660 566 c0 -24 48 -81 99 -115 62 -42 121 -74 126 -69 2 2 -20 16
-50 31 -65 34 -131 90 -156 131 -11 17 -19 27 -19 22z"/>
<path d="M268 424 c-20 -39 -14 -63 27 -112 39 -47 178 -148 256 -188 98 -49
99 -42 3 10 -93 50 -170 104 -232 165 -51 50 -67 84 -51 113 11 20 11 19 42
-8 27 -24 28 -25 11 -4 -12 14 -25 32 -30 41 -8 14 -12 11 -26 -17z"/>
</g>
</svg>
